# xmcd
#
# Track frame offsets: 
#        150
#        14866
#        28962
#        44836
#        61946
#        77743
#        92138
#        104468
#        119923
#        137391
#        153380
#        163184
#        183068
#        196014
#        208403
#        220211
#        235503
#        251226
#        265679
#
# Disc length: 3809 seconds
#
# Revision: 1
# Processed by: cddbd v1.5.2PL0 Copyright (c) Steve Scherf et al.
# Submitted via: ExactAudioCopy v0.99pb5
#
DISCID=190edf13
DTITLE=Tom Astor - Take It Easy - Die Collection [CD 4 von 4)
DYEAR=2009
DGENRE=Country
TTITLE0=Geistertruck
TTITLE1=International Airport
TTITLE2=Schreib mir mal aus Mexico
TTITLE3=Respekt vor deiner Schwäche
TTITLE4=Darum sag ich Danke für mein Leben
TTITLE5=Das letzte Hemd hat keine Taschen
TTITLE6=Du bist mein bester Freund
TTITLE7=Hand in Hand
TTITLE8=Sie reden schneller als sie denken
TTITLE9=Schuld ist der Baby Boom
TTITLE10=Adios Amigo
TTITLE11=Der Feigling des Jahrhunderts
TTITLE12=Home Sweet Highway
TTITLE13=Schlaraffenland ist abgebrannt
TTITLE14=Ja, das ist Country Music Live
TTITLE15=Orange Bolossom Special
TTITLE16=Ring of Fire
TTITLE17=Take Me Home Country Roads
TTITLE18=Auf Wiederseh'n und Goodbye
EXTD=
EXTT0=
EXTT1=
EXTT2=
EXTT3=
EXTT4=
EXTT5=
EXTT6=
EXTT7=
EXTT8=
EXTT9=
EXTT10=
EXTT11=
EXTT12=
EXTT13=
EXTT14=
EXTT15=
EXTT16=
EXTT17=
EXTT18=
PLAYORDER=
